<?xml version="1.0" standalone="no"?>
<!DOCTYPE svg PUBLIC "-//W3C//DTD SVG 20010904//EN"
 "http://www.w3.org/TR/2001/REC-SVG-20010904/DTD/svg10.dtd">
<svg version="1.0" xmlns="http://www.w3.org/2000/svg"
 width="500.000000pt" height="500.000000pt" viewBox="0 0 500.000000 500.000000"
 preserveAspectRatio="xMidYMid meet">
<metadata>
Created by potrace 1.14, written by Peter Selinger 2001-2017
</metadata>
<g transform="translate(0.000000,500.000000) scale(0.100000,-0.100000)"
fill="#000000" stroke="none">
<path d="M1720 4871 c-25 -10 -54 -21 -65 -26 -11 -4 -24 -9 -30 -10 -5 0 -18
-4 -27 -8 -37 -14 -53 -20 -63 -22 -5 0 -17 -4 -25 -7 -8 -3 -67 -22 -130 -42
-63 -20 -124 -41 -135 -45 -11 -5 -51 -19 -90 -31 -38 -12 -76 -23 -83 -25 -7
-3 -14 -3 -16 -2 -1 1 -9 -3 -17 -9 -8 -6 -41 -19 -74 -29 -33 -10 -69 -21
-80 -26 -11 -4 -173 -58 -360 -120 -187 -62 -341 -117 -343 -121 -2 -4 -14 -8
-27 -8 -12 0 -51 -11 -86 -24 l-64 -24 -3 -306 c-1 -168 -1 -306 0 -306 13 1
131 42 161 56 48 23 44 29 101 -146 70 -211 87 -264 97 -285 4 -11 24 -72 44
-135 21 -63 41 -124 45 -135 5 -11 12 -29 16 -40 4 -11 8 -22 9 -25 1 -3 6
-20 10 -37 4 -18 11 -33 16 -33 4 0 8 -8 8 -17 0 -31 24 -113 33 -113 4 0 8
-9 8 -19 0 -11 5 -23 11 -26 6 -4 8 -13 5 -20 -2 -7 1 -18 7 -25 9 -10 9 -14
-1 -17 -6 -3 -10 -9 -6 -14 3 -5 -7 -9 -23 -8 -15 1 -136 -35 -268 -80 -132
-45 -247 -83 -255 -85 -13 -2 -15 -55 -18 -391 l-2 -388 26 -53 c27 -55 56
-75 102 -67 31 4 304 94 317 103 6 4 26 11 45 15 19 4 41 11 50 15 8 4 31 13
50 19 265 89 249 85 269 67 10 -10 22 -32 25 -49 9 -47 11 -56 19 -63 4 -4 7
-13 7 -20 0 -7 5 -25 11 -41 6 -15 11 -30 11 -33 0 -3 18 -54 40 -115 21 -60
50 -146 63 -190 29 -100 48 -148 58 -156 5 -3 9 -12 10 -20 2 -8 6 -20 11 -27
4 -7 5 -16 2 -19 -3 -3 0 -13 7 -21 9 -12 9 -16 0 -19 -7 -3 -13 -11 -13 -19
0 -12 -4 -12 -20 -4 -19 10 -24 6 -21 -14 1 -4 -10 -5 -24 -2 -15 4 -25 2 -25
-4 0 -6 -8 -10 -17 -9 -31 3 -38 -1 -23 -12 11 -8 7 -9 -17 -4 -26 5 -32 4
-28 -8 5 -10 -2 -13 -27 -10 -18 1 -27 0 -20 -3 6 -3 12 -10 12 -15 0 -6 -8
-6 -19 1 -29 15 -50 12 -29 -4 26 -19 10 -27 -22 -11 -32 17 -48 8 -22 -12 15
-11 13 -12 -11 -3 -40 14 -55 12 -33 -5 23 -17 4 -20 -26 -4 -27 14 -36 2 -12
-16 17 -13 17 -14 2 -15 -9 0 -20 4 -23 10 -3 5 -16 10 -28 10 -22 0 -22 -1 3
-20 l25 -20 -36 15 c-42 16 -61 8 -27 -13 l23 -13 -25 6 c-66 17 -73 18 -66 6
4 -6 14 -11 22 -11 8 0 14 -4 14 -10 0 -13 -6 -13 -41 6 -36 18 -51 11 -23
-12 19 -15 19 -16 -1 -9 -11 4 -31 9 -45 11 -25 4 -25 4 -2 -7 35 -19 26 -29
-12 -14 -22 10 -37 11 -41 5 -3 -6 -2 -10 2 -10 5 0 18 -7 29 -15 17 -14 15
-14 -20 0 -59 23 -76 17 -26 -10 54 -29 40 -33 -20 -6 -34 15 -47 17 -62 8
-27 -17 -23 -25 27 -49 25 -12 45 -26 45 -30 0 -5 -13 -2 -30 7 -45 23 -58 18
-25 -10 17 -14 22 -22 13 -19 -28 10 -21 -14 9 -30 20 -11 23 -15 11 -16 -22
0 -23 -19 -2 -27 13 -5 13 -7 2 -14 -10 -7 -7 -14 12 -29 15 -12 18 -18 7 -14
-29 10 -19 -14 13 -31 40 -21 60 -19 31 4 -17 13 -19 18 -7 18 9 0 16 -4 16
-9 0 -4 12 -8 26 -8 15 0 23 4 19 10 -4 7 2 9 19 4 17 -4 26 -2 26 6 0 7 8 10
20 7 11 -3 23 -1 26 4 3 5 16 9 30 9 17 0 23 4 18 12 -5 8 0 9 14 6 12 -4 25
-2 28 3 3 5 16 9 30 9 17 0 23 4 18 12 -5 8 0 9 14 6 12 -4 25 -2 28 3 3 5 16
9 29 9 13 0 27 5 30 10 4 6 10 8 15 5 5 -3 11 -1 15 5 3 5 17 10 31 10 13 0
24 4 24 10 0 5 3 9 8 9 17 -3 72 14 72 23 0 5 9 7 19 3 11 -3 22 -2 25 4 3 5
24 12 46 16 22 4 40 11 40 16 0 5 12 9 26 9 16 0 23 4 18 11 -4 7 1 10 12 7
11 -2 25 -21 36 -48 25 -66 63 -175 89 -257 33 -106 27 -102 113 -72 l75 25
20 -65 c29 -93 27 -91 95 -70 32 11 65 24 72 30 8 6 14 8 14 4 0 -4 6 -2 14 4
8 6 18 11 22 10 12 -3 67 12 79 21 6 4 25 11 43 15 17 3 32 10 32 15 0 14 62
9 93 -7 16 -8 27 -17 24 -20 -3 -2 -15 0 -26 7 -33 17 -25 -6 12 -32 17 -13
34 -22 37 -21 3 2 55 -22 117 -52 61 -30 115 -55 118 -55 4 0 5 7 2 15 -5 11
1 13 26 9 25 -4 29 -3 17 5 -13 10 -13 12 -1 20 12 8 7 14 -23 31 -20 13 -34
25 -31 28 3 3 11 0 17 -6 15 -15 28 -16 28 -2 0 5 -40 30 -90 55 -49 25 -90
41 -90 35 0 -5 18 -19 41 -30 46 -24 48 -37 3 -19 -16 7 -32 12 -36 11 -5 -1
-8 2 -8 7 0 5 -9 13 -20 16 -11 3 -20 10 -20 15 0 5 8 7 18 3 16 -6 16 -5 -1
14 -11 13 -14 23 -8 27 5 4 12 2 15 -3 7 -11 163 -91 177 -91 24 0 -7 21 -88
60 -49 24 -83 45 -76 47 6 2 40 -11 75 -29 82 -43 78 -41 78 -29 0 6 -25 22
-55 36 -30 13 -55 29 -55 34 0 16 11 14 48 -9 45 -28 53 -24 17 6 -26 23 -27
25 -8 21 15 -3 20 -1 16 9 -3 9 2 14 18 14 22 0 22 0 3 15 -19 14 -19 14 2 15
11 0 26 -6 33 -13 11 -9 14 -9 18 1 3 6 17 12 31 12 15 0 39 6 54 14 14 8 45
17 67 21 23 4 41 11 41 17 0 6 7 8 15 5 8 -4 17 -2 20 3 4 6 16 10 29 10 12 0
27 5 34 12 7 7 12 9 12 6 0 -3 44 10 98 29 53 19 115 39 137 45 22 6 45 14 50
18 6 4 26 11 45 15 19 4 40 11 45 15 6 4 25 10 43 14 27 5 48 -1 102 -28 37
-19 71 -32 73 -29 3 3 21 -6 39 -20 32 -24 152 -81 173 -82 17 -2 342 -163
349 -173 8 -14 161 -92 179 -92 8 0 20 -6 26 -14 10 -12 152 -86 164 -86 8 0
-1 51 -11 63 -7 8 -9 17 -5 20 3 4 0 14 -8 23 -8 10 -13 18 -11 18 6 2 -11 61
-21 73 -5 7 -7 13 -4 13 4 0 -2 20 -13 45 -11 25 -19 46 -19 48 2 3 -21 91
-28 107 -3 8 -7 20 -8 26 -2 6 -10 27 -18 45 -8 19 -26 70 -40 114 -14 44 -31
94 -38 110 -7 17 -13 35 -13 42 -1 7 -10 19 -21 27 -11 9 -14 16 -7 16 6 0 12
6 12 14 0 8 26 20 68 31 37 10 112 32 167 51 55 18 136 44 180 58 44 14 152
50 240 81 88 31 183 63 210 71 28 9 55 22 61 30 6 8 18 12 26 9 13 -5 70 11
131 38 l27 12 0 886 0 887 -30 12 c-43 18 -61 6 -22 -14 48 -25 39 -28 -14 -4
-33 14 -49 17 -57 9 -8 -8 -7 -11 4 -11 8 0 24 -7 35 -15 17 -13 15 -13 -18 0
-21 8 -45 15 -55 15 -17 -1 -16 -2 1 -15 24 -18 4 -20 -24 -3 -26 16 -40 0
-16 -18 11 -8 15 -14 9 -14 -7 0 -15 5 -18 10 -3 6 -18 10 -33 9 -15 0 -21 -3
-14 -6 6 -2 12 -9 12 -14 0 -5 -11 -3 -25 3 -28 12 -48 2 -25 -12 10 -6 1 -8
-25 -4 -38 5 -39 4 -21 -10 23 -18 18 -20 -18 -6 -16 6 -27 6 -31 0 -4 -6 2
-10 12 -11 10 0 13 -3 6 -5 -7 -3 -20 -1 -30 5 -11 5 -25 6 -32 2 -10 -6 -9
-10 5 -15 9 -3 15 -9 12 -12 -3 -2 -18 1 -32 8 -18 8 -30 8 -34 2 -4 -6 -34
-16 -67 -23 -32 -7 -66 -17 -75 -21 -8 -5 -37 -16 -65 -25 -27 -9 -57 -19 -65
-22 -25 -10 -44 -15 -77 -20 -29 -5 -34 -2 -44 23 -7 16 -13 34 -14 39 -2 6
-51 152 -110 325 -59 173 -115 340 -126 372 -25 74 -23 106 7 102 13 -1 28 -5
33 -9 6 -3 11 -2 11 3 0 5 20 13 45 16 25 4 45 12 45 18 0 6 3 9 6 5 3 -3 18
-1 33 5 14 5 33 11 42 13 9 2 140 44 289 94 150 50 279 91 286 91 21 0 17 61
-8 116 -12 27 -23 54 -23 59 -1 6 -3 12 -4 15 -38 106 -52 148 -55 161 -2 9
-16 49 -31 90 -14 41 -28 81 -30 89 -2 8 -18 60 -36 115 -18 55 -33 102 -34
105 -1 3 -7 17 -13 32 l-11 27 -57 -19 c-31 -11 -67 -20 -79 -20 -11 0 -25 -4
-31 -10 -5 -5 -93 -38 -196 -74 l-187 -65 -15 42 c-8 23 -20 59 -26 79 l-11
37 -142 -49 -142 -49 -16 22 c-10 11 -15 26 -12 33 2 7 0 15 -6 18 -6 4 -8 13
-5 21 4 9 -4 19 -22 27 -22 10 -28 10 -32 0 -2 -6 -12 -12 -23 -12 -10 0 -19
-5 -19 -11 0 -6 -9 -8 -20 -4 -11 3 -20 2 -20 -3 0 -5 -19 -12 -42 -16 -23 -4
-47 -11 -53 -15 -5 -5 -35 -14 -65 -21 -30 -7 -62 -17 -70 -21 -20 -10 -53
-23 -65 -24 -5 -1 -17 -5 -25 -8 -8 -3 -58 -19 -110 -37 -52 -17 -102 -34
-110 -37 -8 -4 -18 -7 -22 -7 -3 -1 -10 -4 -14 -8 -4 -5 -17 -8 -30 -8 -12 0
-24 -5 -26 -12 -5 -15 -58 -2 -58 15 0 23 -73 237 -81 237 -5 0 -88 -27 -186
-61 -98 -33 -217 -73 -264 -90 -48 -16 -89 -29 -92 -29 -3 0 -15 29 -27 65
-12 36 -25 65 -29 65 -4 0 -32 -9 -64 -20 -66 -23 -86 -25 -92 -7 -49 141 -47
139 -125 108z m750 -1833 c-1 -117 -1 -372 -1 -567 1 -341 1 -355 -18 -373
-27 -24 -36 -23 -72 12 -17 16 -40 32 -50 35 -26 9 -24 18 15 74 64 91 85 207
48 264 -25 38 -79 75 -125 88 -31 8 -43 7 -63 -6 -31 -20 -30 -26 11 -54 39
-26 42 -37 20 -68 l-15 -22 -58 31 c-128 69 -230 129 -241 141 -8 11 -3 13 24
12 19 -1 40 4 46 12 9 10 15 10 25 2 8 -6 11 -16 7 -22 -3 -6 -1 -7 5 -3 9 5
9 13 2 27 -6 10 -8 19 -4 19 3 0 1 7 -6 15 -6 8 -9 19 -5 25 3 5 -1 10 -9 10
-9 0 -16 6 -17 13 0 9 -2 9 -5 0 -4 -8 -11 -7 -24 4 -22 19 -50 26 -50 12 0
-5 -7 -9 -15 -9 -23 0 -6 29 26 45 59 31 150 13 243 -48 132 -86 208 -109 219
-67 5 21 -31 74 -84 121 -16 14 -29 31 -29 38 0 7 -4 9 -10 6 -5 -3 -10 1 -10
9 0 9 4 16 9 16 5 0 12 7 15 16 3 8 2 13 -2 10 -5 -3 -9 1 -9 9 0 8 4 12 9 9
5 -4 8 1 6 9 -2 9 2 16 7 16 6 1 10 -3 10 -8 0 -5 3 -12 7 -16 14 -15 1 27
-15 45 -9 11 -12 20 -7 20 6 0 10 7 10 16 0 14 2 15 18 3 16 -13 16 -13 0 7
-10 11 -18 26 -18 33 0 7 -5 9 -12 4 -7 -4 7 17 31 47 24 30 68 88 99 128 30
39 56 72 59 72 2 0 4 -96 3 -212z m166 21 c96 -93 109 -148 72 -309 -8 -30
-21 -66 -30 -80 -18 -28 -65 -162 -70 -199 -4 -28 -33 -50 -47 -36 -12 13 -18
56 -27 195 -9 156 -17 459 -14 538 0 8 12 0 26 -17 14 -17 55 -59 90 -92z
m-949 55 c21 -2 61 1 91 7 46 11 55 10 69 -4 15 -14 15 -18 -1 -42 -15 -23
-22 -26 -49 -20 -18 4 -50 9 -72 10 -63 6 -104 15 -111 26 -7 12 15 41 27 33
5 -2 25 -7 46 -10z m-236 -211 c-8 -15 -10 -15 -11 -2 0 17 10 32 18 25 2 -3
-1 -13 -7 -23z m33 -85 c-6 -29 -5 -31 10 -19 11 10 16 10 16 2 0 -8 11 -11
27 -9 14 2 28 -2 30 -8 4 -11 -9 -14 -135 -29 -51 -7 -52 -7 -43 16 7 20 14
23 43 21 32 -3 36 -1 41 27 4 17 9 31 13 31 3 0 2 -15 -2 -32z m2281 -193 c3
-144 -6 -231 -36 -350 -38 -151 -122 -332 -189 -413 -14 -15 -30 -7 -30 16 0
18 -37 93 -50 102 -13 9 -21 48 -12 54 5 3 25 -8 43 -24 19 -16 37 -30 40 -30
15 0 139 282 145 330 1 8 9 51 19 95 9 44 16 109 16 145 0 36 3 81 7 100 5 19
4 50 0 68 -7 26 -5 39 8 60 l17 26 10 -25 c5 -13 10 -82 12 -154z m-782 111
c43 -17 93 -76 108 -125 10 -35 9 -42 -10 -69 -11 -17 -21 -38 -21 -47 0 -25
-58 -122 -83 -140 -35 -25 -54 -19 -49 14 5 33 -20 86 -47 101 -35 18 -77 11
-116 -20 -37 -30 -63 -33 -122 -15 -16 5 8 81 46 148 75 131 196 194 294 153z
m-1331 -13 c21 -24 7 -63 -22 -63 -22 0 -22 0 -10 78 1 8 19 -1 32 -15z m-202
-28 c30 -4 67 -8 83 -9 46 -2 32 -30 -30 -64 -95 -52 -96 -53 -20 -50 59 3 67
1 67 -15 0 -11 -5 -15 -11 -11 -6 3 -47 6 -90 5 -64 -1 -79 1 -79 13 0 14 110
86 131 86 5 0 9 5 9 10 0 9 -35 13 -107 14 -18 0 -23 6 -23 26 0 14 3 20 8 14
4 -6 32 -15 62 -19z m427 -27 c-3 -7 -5 -2 -5 12 0 14 2 19 5 13 2 -7 2 -19 0
-25z m-217 -63 c0 -28 -5 -38 -22 -44 -28 -11 -30 -9 -33 29 -2 20 3 34 14 40
30 18 41 11 41 -25z m-344 -155 c7 -47 19 -114 28 -150 25 -104 119 -328 138
-330 4 0 25 19 47 43 46 50 121 81 193 79 27 0 46 3 43 8 -3 4 4 19 15 31 l19
24 18 -25 c10 -13 21 -34 24 -45 3 -11 10 -19 16 -18 6 1 23 -11 38 -27 23
-25 26 -32 15 -45 -14 -17 -46 -20 -55 -5 -9 15 -65 37 -114 45 -94 16 -207
-54 -227 -140 -5 -21 -14 -40 -19 -41 -14 -4 -101 135 -145 231 -62 136 -113
353 -102 433 3 19 9 23 30 20 25 -3 27 -7 38 -88z m331 2 c-21 -20 -32 -10
-35 32 -2 30 1 38 20 45 21 8 23 5 26 -27 2 -21 -2 -41 -11 -50z m-87 34 c0
-8 -25 -38 -56 -67 -30 -30 -51 -55 -47 -56 5 -2 31 3 58 11 50 15 65 14 65
-7 0 -7 -12 -12 -27 -13 -16 0 -41 -4 -58 -7 -62 -14 -105 -19 -105 -12 0 4
28 36 63 72 l62 66 -50 -7 c-27 -4 -60 -10 -72 -13 -18 -4 -23 -1 -23 13 0 17
8 19 67 18 37 -1 76 2 87 6 30 12 36 12 36 -4z m1914 -56 c-6 -27 -3 -31 32
-46 24 -10 54 -14 80 -11 33 3 41 1 37 -9 -7 -20 -67 -28 -107 -14 -39 12 -67
44 -60 66 2 8 6 21 9 29 8 27 15 16 9 -15z m-1790 -31 c6 -33 -7 -59 -29 -59
-15 0 -25 22 -25 54 0 48 44 52 54 5z m33 -100 c9 -21 8 -31 -4 -49 l-16 -23
-18 24 c-23 30 -24 47 -2 71 18 20 23 17 40 -23z m1724 2 c-39 -39 -1 -56 48
-22 14 10 33 20 41 22 28 5 60 -12 60 -32 0 -28 -28 -79 -44 -79 -24 0 -26 13
-3 24 23 12 31 56 11 63 -6 2 -26 -7 -45 -20 -19 -13 -41 -26 -50 -29 -20 -8
-59 18 -59 39 0 25 41 76 52 65 7 -7 3 -17 -11 -31z m-1831 -17 c0 -5 -22 -16
-49 -23 -28 -7 -66 -21 -85 -30 -38 -20 -46 -18 -46 11 0 10 7 18 17 18 30 0
143 42 143 54 0 14 20 -15 20 -30z m1002 -20 c4 -16 19 -50 33 -76 l26 -48
-43 -46 c-40 -42 -45 -44 -71 -35 -27 10 -27 11 -27 104 0 67 4 99 15 115 22
31 57 23 67 -14z m-856 -39 c9 -8 12 -15 8 -15 -3 0 -1 -6 5 -14 9 -11 10 -20
1 -35 -14 -27 -24 -26 -44 4 -19 29 -20 47 -4 63 15 15 16 15 34 -3z m1093
-492 c11 -36 6 -43 -25 -43 -17 0 -24 7 -29 29 -17 78 32 91 54 14z m-1026
-123 c14 -11 34 -20 44 -20 25 0 53 -49 42 -75 -4 -11 -8 -15 -8 -8 -1 19 -87
63 -124 63 -61 0 -53 56 9 59 6 1 23 -8 37 -19z m1361 -279 c27 -54 28 -81 6
-81 -5 0 -19 18 -30 40 -12 23 -25 38 -30 35 -16 -10 -21 13 -9 39 18 39 33
32 63 -33z m-2779 -601 c17 -11 24 -20 17 -20 -15 0 -72 28 -72 35 0 11 27 4
55 -15z m1739 -426 c31 -14 56 -27 56 -30 0 -9 -56 9 -80 26 -14 9 -32 20 -40
23 -8 3 -10 6 -4 6 7 1 37 -11 68 -25z m-17 -25 c26 -12 43 -23 36 -26 -11 -4
-93 33 -93 42 0 8 6 6 57 -16z m118 3 c-3 -3 -11 0 -18 7 -9 10 -8 11 6 5 10
-3 15 -9 12 -12z"/>
<path d="M2439 2863 c-13 -16 -12 -17 4 -4 9 7 17 15 17 17 0 8 -8 3 -21 -13z"/>
<path d="M2430 2826 c0 -2 7 -6 15 -10 8 -3 15 -1 15 4 0 6 -7 10 -15 10 -8 0
-15 -2 -15 -4z"/>
<path d="M2413 2773 c0 -9 4 -10 14 -2 7 6 13 12 13 14 0 1 -6 2 -13 2 -8 0
-14 -6 -14 -14z"/>
<path d="M2025 2660 c4 -6 12 -7 18 -3 8 5 8 2 -1 -9 -10 -12 -9 -18 3 -28 8
-7 12 -16 10 -21 -3 -4 4 -6 15 -4 11 2 20 0 20 -6 0 -5 4 -9 8 -9 5 0 8 15 7
34 -2 28 0 33 14 28 14 -5 14 -4 1 9 -15 15 -50 22 -48 10 2 -20 -3 -31 -12
-26 -5 3 -7 12 -3 20 3 10 -2 15 -17 15 -12 0 -18 -4 -15 -10z m66 -18 c-7
-13 -7 -22 0 -29 6 -6 4 -10 -6 -10 -8 0 -23 10 -32 21 -16 18 -16 19 -1 8 14
-11 18 -10 28 7 6 12 13 21 16 21 2 0 0 -8 -5 -18z"/>
<path d="M2110 2623 c1 -21 15 -30 27 -18 10 10 9 14 -3 19 -20 8 -24 8 -24
-1z"/>
<path d="M1995 2610 c-3 -5 -1 -10 4 -10 6 0 11 5 11 10 0 6 -2 10 -4 10 -3 0
-8 -4 -11 -10z"/>
<path d="M2942 2615 c-6 -14 -15 -25 -19 -24 -30 5 -35 -2 -18 -21 10 -11 15
-28 12 -40 -6 -22 3 -26 21 -8 9 9 18 9 37 0 24 -11 25 -10 19 12 -4 18 0 28
17 40 23 15 16 21 -19 17 -6 -1 -17 10 -22 24 -12 31 -14 31 -28 0z"/>
<path d="M4965 3190 c3 -5 11 -10 16 -10 6 0 7 5 4 10 -3 6 -11 10 -16 10 -6
0 -7 -4 -4 -10z"/>
<path d="M1984 282 c8 -13 236 -124 247 -120 10 3 -228 128 -244 128 -5 0 -6
-4 -3 -8z"/>
</g>
</svg>
